<svg width="20" height="20" viewBox="0 0 20 20" fill="none" xmlns="http://www.w3.org/2000/svg">
<path d="M20.0002 10.6251C20.0002 10.8737 19.9014 11.1122 19.7256 11.288C19.5498 11.4638 19.3113 11.5626 19.0627 11.5626H18.4377V12.1876C18.4377 12.4362 18.3389 12.6747 18.1631 12.8505C17.9873 13.0263 17.7488 13.1251 17.5002 13.1251C17.2515 13.1251 17.0131 13.0263 16.8373 12.8505C16.6615 12.6747 16.5627 12.4362 16.5627 12.1876V11.5626H15.9377C15.689 11.5626 15.4506 11.4638 15.2748 11.288C15.099 11.1122 15.0002 10.8737 15.0002 10.6251C15.0002 10.3765 15.099 10.138 15.2748 9.96219C15.4506 9.78638 15.689 9.68761 15.9377 9.68761H16.5627V9.06261C16.5627 8.81397 16.6615 8.57551 16.8373 8.39969C17.0131 8.22388 17.2515 8.12511 17.5002 8.12511C17.7488 8.12511 17.9873 8.22388 18.1631 8.39969C18.3389 8.57551 18.4377 8.81397 18.4377 9.06261V9.68761H19.0627C19.3113 9.68761 19.5498 9.78638 19.7256 9.96219C19.9014 10.138 20.0002 10.3765 20.0002 10.6251ZM15.7181 15.022C15.8781 15.2124 15.9559 15.4586 15.9343 15.7063C15.9128 15.9541 15.7937 16.1831 15.6033 16.3431C15.4129 16.503 15.1667 16.5808 14.919 16.5593C14.6712 16.5377 14.4422 16.4186 14.2822 16.2282C13.2127 14.9548 11.3283 13.4376 8.43768 13.4376C6.18065 13.4376 4.10487 14.4282 2.59315 16.2282C2.43319 16.4186 2.20414 16.5377 1.95639 16.5593C1.70863 16.5808 1.46247 16.503 1.27205 16.3431C1.08164 16.1831 0.962563 15.9541 0.941026 15.7063C0.919488 15.4586 0.997252 15.2124 1.15721 15.022C2.17575 13.7919 3.48243 12.8324 4.96112 12.229C4.04161 11.5061 3.37033 10.5145 3.04069 9.39228C2.71105 8.27004 2.73945 7.07295 3.12193 5.9676C3.50441 4.86225 4.22196 3.90362 5.17471 3.22512C6.12746 2.54663 7.26802 2.18201 8.43768 2.18201C9.60734 2.18201 10.7479 2.54663 11.7007 3.22512C12.6534 3.90362 13.3709 4.86225 13.7534 5.9676C14.1359 7.07295 14.1643 8.27004 13.8347 9.39228C13.505 10.5145 12.8337 11.5061 11.9142 12.229C13.3931 12.8322 14.6998 13.7917 15.7181 15.022ZM8.43768 11.5626C9.17936 11.5626 9.90438 11.3427 10.5211 10.9306C11.1378 10.5186 11.6184 9.93289 11.9022 9.24767C12.1861 8.56245 12.2603 7.80845 12.1156 7.08102C11.9709 6.35359 11.6138 5.6854 11.0893 5.16096C10.5649 4.63651 9.8967 4.27936 9.16927 4.13466C8.44184 3.98997 7.68784 4.06423 7.00262 4.34806C6.31739 4.63189 5.73172 5.11253 5.31967 5.72922C4.90761 6.3459 4.68768 7.07093 4.68768 7.81261C4.68871 8.80685 5.08413 9.76008 5.78717 10.4631C6.49021 11.1662 7.44344 11.5616 8.43768 11.5626Z" fill="#0D6EFD"/>
</svg>
